<?xml version="1.0" encoding="UTF-8" standalone="no"?>
<!-- Created with Inkscape (http://www.inkscape.org/) -->
<svg
   width="244.33243mm"
   height="62.5704mm"
   viewBox="0 0 244.33243 62.5704"
   version="1.1"
   id="svg5"
   inkscape:version="1.1 (c68e22c387, 2021-05-23)"
   sodipodi:docname="drawing.svg"
   xmlns:inkscape="http://www.inkscape.org/namespaces/inkscape"
   xmlns:sodipodi="http://sodipodi.sourceforge.net/DTD/sodipodi-0.dtd"
   xmlns="http://www.w3.org/2000/svg"
   xmlns:svg="http://www.w3.org/2000/svg">
  <sodipodi:namedview
     id="namedview7"
     pagecolor="#ffffff"
     bordercolor="#666666"
     borderopacity="1.0"
     inkscape:pageshadow="2"
     inkscape:pageopacity="0.0"
     inkscape:pagecheckerboard="0"
     inkscape:document-units="mm"
     showgrid="false"
     height="25mm"
     lock-margins="false"
     fit-margin-top="10"
     fit-margin-left="10"
     fit-margin-right="10"
     fit-margin-bottom="10"
     inkscape:zoom="0.77771465"
     inkscape:cx="-142.08296"
     inkscape:cy="554.18784"
     inkscape:window-width="3840"
     inkscape:window-height="2050"
     inkscape:window-x="3572"
     inkscape:window-y="-12"
     inkscape:window-maximized="1"
     inkscape:current-layer="layer1" />
  <defs
     id="defs2" />
  <g
     inkscape:label="Layer 1"
     inkscape:groupmode="layer"
     id="layer1"
     transform="translate(1.5487263,-1.5500933)">
    <g
       aria-label="BAHSEL
"
       id="text1881"
       style="font-weight:500;font-size:50.8px;line-height:1.25;font-family:'Gmarket Sans TTF';-inkscape-font-specification:'Gmarket Sans TTF, Medium';stroke-width:0.264583">
      <path
         d="m 25.062873,12.515293 q 6.7056,0 10.3632,2.9972 3.7084,2.9972 3.7084,8.2804 0,2.8956 -1.8288,5.334 -1.778,2.3876 -4.4704,3.048 3.556,0.7112 5.8928,3.302 2.3368,2.5908 2.3368,6.2484 0,5.2832 -3.8608,8.382 -3.81,3.0988 -10.6172,3.0988 H 8.4512737 v -40.6908 z m -0.1524,17.9324 q 4.2672,0 6.5532,-1.7272 2.286,-1.7272 2.286,-4.9276 0,-3.2004 -2.286,-4.9276 -2.286,-1.7272 -6.5532,-1.7272 H 13.785274 v 13.3096 z m 1.524,18.1356 q 4.318,0 6.7564,-1.778 2.4892,-1.778 2.4892,-5.08 0,-3.302 -2.4892,-5.08 -2.4384,-1.778 -6.7564,-1.778 H 13.785274 v 13.716 z"
         id="path15659" />
      <path
         d="m 72.56072,43.147693 h -19.558 l -4.064,10.0584 h -5.588 l 16.764,-40.6908 h 5.6388 l 16.7132,40.6908 h -5.842 z m -1.8796,-4.7244 -7.874,-19.6596 -7.9248,19.6596 z"
         id="path15661" />
      <path
         d="m 122.19223,12.515293 v 40.6908 h -5.334 v -18.3896 H 93.236232 v 18.3896 h -5.334 v -40.6908 h 5.334 v 17.4244 h 23.621998 v -17.4244 z"
         id="path15663" />
      <path
         d="m 145.91574,11.550093 q 4.4196,0 7.9756,1.5748 3.556,1.524 5.6896,4.318 2.1336,2.794 2.3876,6.2992 h -5.4864 q -0.4572,-3.3528 -3.3528,-5.4864 -2.8448,-2.1336 -7.4676,-2.1336 -4.6736,0 -7.366,1.778 -2.6416,1.7272 -2.6416,4.5212 0,2.0828 1.27,3.5052 1.27,1.3716 3.9116,2.3876 2.6924,1.016 7.2644,1.9812 7.366,1.5748 10.668,4.5212 3.3528,2.8956 3.3528,7.5184 0,3.556 -2.1336,6.2484 -2.1336,2.6416 -5.842,4.064 -3.7084,1.4732 -8.2296,1.4732 -4.7244,0 -8.4836,-1.6256 -3.7084,-1.6256 -5.9436,-4.572 -2.2352,-2.9464 -2.4892,-6.858 h 5.4864 q 0.4064,3.7592 3.556,6.096 3.2004,2.3368 8.2296,2.3368 2.9972,0 5.3848,-0.8636 2.3876,-0.8636 3.7084,-2.4384 1.3208,-1.5748 1.3208,-3.556 0,-2.2352 -1.27,-3.7084 -1.27,-1.4732 -3.9624,-2.4892 -2.6416,-1.0668 -7.3152,-2.032 -7.112,-1.4732 -10.5156,-4.2672 -3.3528,-2.794 -3.3528,-7.7216 0,-3.302 1.9812,-5.7404 2.032,-2.4892 5.588,-3.81 3.556,-1.3208 8.0772,-1.3208 z"
         id="path15665" />
      <path
         d="m 197.78253,12.515293 v 4.7244 h -23.5712 v 12.8016 h 21.7932 v 4.7244 h -21.7932 v 13.716 h 24.0284 v 4.7244 h -29.3624 v -40.6908 z"
         id="path15667" />
      <path
         d="m 210.4317,48.380093 h 22.352 v 4.826 h -27.686 v -40.6908 h 5.334 z"
         id="path15669" />
    </g>
  </g>
</svg>
