<?xml version="1.0" standalone="no"?>
<!DOCTYPE svg PUBLIC "-//W3C//DTD SVG 20010904//EN"
 "http://www.w3.org/TR/2001/REC-SVG-20010904/DTD/svg10.dtd">
<svg version="1.0" xmlns="http://www.w3.org/2000/svg"
 width="512.000000pt" height="512.000000pt" viewBox="0 0 512.000000 512.000000"
 preserveAspectRatio="xMidYMid meet">
<metadata>
Created by potrace 1.14, written by Peter Selinger 2001-2017
</metadata>
<g transform="translate(0.000000,512.000000) scale(0.100000,-0.100000)"
fill="#000000" stroke="none">
<path d="M2230 5104 c-742 -95 -1408 -515 -1823 -1149 -85 -130 -174 -301
-231 -445 -46 -118 -120 -359 -112 -367 5 -5 271 120 401 188 230 121 611 361
855 539 221 160 260 192 260 209 0 9 15 32 34 50 l33 32 35 -40 35 -41 96 0
97 0 37 40 36 41 34 -33 c22 -21 33 -41 33 -61 0 -19 27 -68 81 -150 300 -448
618 -846 909 -1138 245 -245 428 -389 627 -490 162 -82 199 -91 375 -87 146 3
156 5 212 33 110 54 228 183 310 340 42 80 106 245 106 273 0 11 7 25 15 32
13 10 19 10 33 -4 24 -21 60 -21 84 1 17 15 20 15 34 1 12 -12 16 -36 16 -92
0 -41 4 -92 8 -113 5 -21 14 -65 20 -98 30 -158 85 -276 164 -354 l53 -52 12
101 c16 144 14 462 -4 610 -92 744 -509 1411 -1140 1826 -329 216 -695 350
-1085 399 -153 19 -501 18 -650 -1z m1076 -1928 c7 -34 29 -55 59 -56 22 -1
62 -27 53 -35 -3 -3 -21 2 -41 10 -20 8 -59 15 -87 15 -27 0 -50 5 -50 10 0 6
7 10 16 10 18 0 14 20 -17 86 -10 22 -19 47 -19 54 0 25 79 -62 86 -94z m1421
-22 c19 -29 37 -30 70 -4 17 13 41 20 72 20 25 0 66 5 90 11 56 12 62 6 20
-20 -22 -13 -51 -21 -81 -21 -51 0 -98 -17 -98 -34 0 -13 -90 -9 -104 5 -6 5
-18 9 -28 9 -26 0 -22 18 5 22 18 3 11 10 -36 32 -50 25 -87 57 -87 76 0 14
163 -75 177 -96z m-711 -293 c14 -11 49 -27 77 -36 37 -12 63 -29 92 -61 38
-42 44 -45 92 -46 29 0 57 3 63 7 6 4 32 1 57 -6 37 -10 42 -14 27 -20 -10 -4
-40 -4 -65 -2 -44 5 -101 -13 -181 -57 -18 -10 -48 -4 -48 10 0 4 10 15 23 23
l22 16 -35 28 c-19 15 -47 40 -62 55 -14 16 -30 28 -35 28 -13 0 -63 54 -63
68 0 17 8 15 36 -7z"/>
<path d="M1522 3969 l-42 -31 0 -134 c0 -74 3 -134 6 -134 3 0 23 14 45 30
l38 31 3 134 c2 74 1 135 -3 135 -3 0 -24 -14 -47 -31z"/>
<path d="M2050 3783 l0 -168 40 -45 39 -45 1 158 0 157 -36 55 c-20 30 -38 55
-40 55 -2 0 -4 -75 -4 -167z"/>
<path d="M1710 3889 c0 -29 2 -30 18 -18 39 31 42 49 7 49 -21 0 -25 -5 -25
-31z"/>
<path d="M1826 3911 c-5 -7 46 -81 85 -125 5 -6 9 21 9 62 l0 72 -44 0 c-25 0
-47 -4 -50 -9z"/>
<path d="M1397 3877 l-38 -32 3 -144 3 -143 45 40 45 40 1 136 c0 90 -3 136
-10 136 -6 0 -28 -15 -49 -33z"/>
<path d="M1747 3839 c-34 -28 -37 -35 -37 -80 l0 -49 105 0 105 0 -61 78 c-34
42 -64 78 -68 80 -3 1 -23 -12 -44 -29z"/>
<path d="M1273 3789 l-43 -30 0 -150 c0 -82 3 -149 6 -149 3 0 26 16 50 36
l44 36 0 144 c0 79 -3 144 -7 144 -5 -1 -27 -14 -50 -31z"/>
<path d="M2160 3634 l1 -159 49 -55 50 -55 0 146 0 145 -44 63 c-25 35 -47 66
-50 69 -3 3 -6 -66 -6 -154z"/>
<path d="M1143 3699 l-43 -30 0 -155 0 -156 48 34 47 34 3 152 c1 84 -1 152
-5 152 -5 -1 -27 -14 -50 -31z"/>
<path d="M1522 3641 l-42 -39 2 -668 3 -669 43 -3 42 -3 0 710 c0 391 -1 711
-2 711 -2 -1 -22 -18 -46 -39z"/>
<path d="M1013 3612 l-43 -27 0 -159 0 -158 23 14 c12 8 34 23 50 33 l27 17 0
154 c0 85 -3 154 -7 154 -5 0 -27 -13 -50 -28z"/>
<path d="M2290 3463 l0 -138 50 -55 49 -55 1 130 0 131 -45 62 c-25 34 -47 62
-50 62 -3 0 -5 -62 -5 -137z"/>
<path d="M1398 3536 l-38 -33 0 -620 0 -619 48 6 47 5 0 647 c0 426 -3 648
-10 648 -5 -1 -27 -16 -47 -34z"/>
<path d="M883 3531 l-42 -26 -3 -163 c-2 -89 -1 -162 1 -162 2 0 23 12 47 27
l43 28 3 158 c2 88 1 160 -2 161 -3 2 -24 -9 -47 -23z"/>
<path d="M2052 2900 l3 -645 38 -3 37 -3 0 603 -1 603 -39 45 -40 45 2 -645z"/>
<path d="M1710 3405 l0 -115 28 0 c16 0 63 3 105 6 l77 7 0 108 0 109 -105 0
-105 0 0 -115z"/>
<path d="M748 3447 l-38 -22 0 -164 0 -163 23 14 c12 8 34 23 50 33 l27 17 0
154 c0 170 1 168 -62 131z"/>
<path d="M1273 3438 l-43 -32 0 -568 0 -568 50 0 50 0 0 600 c0 330 -3 600 -7
600 -5 -1 -27 -15 -50 -32z"/>
<path d="M2420 3305 l1 -130 49 -53 50 -53 0 119 0 120 -41 54 c-23 29 -46 57
-50 63 -5 5 -9 -48 -9 -120z"/>
<path d="M2160 2830 l0 -580 48 0 47 0 0 525 0 525 -44 55 c-24 30 -46 55 -47
55 -2 0 -4 -261 -4 -580z"/>
<path d="M623 3374 l-43 -26 0 -159 c0 -87 3 -159 7 -159 3 0 26 11 50 25 l43
26 0 159 c0 88 -3 160 -7 160 -5 -1 -27 -12 -50 -26z"/>
<path d="M1143 3339 l-43 -30 0 -520 0 -519 50 0 50 0 0 550 c0 303 -3 550 -7
550 -5 -1 -27 -14 -50 -31z"/>
<path d="M493 3303 l-43 -24 0 -165 c0 -129 3 -164 13 -158 6 4 29 18 50 31
l37 23 0 155 c0 84 -3 156 -7 158 -5 2 -27 -7 -50 -20z"/>
<path d="M1013 3247 l-43 -31 0 -467 0 -466 41 -7 c22 -4 44 -4 50 -1 11 7 13
1005 2 1004 -5 0 -27 -15 -50 -32z"/>
<path d="M363 3237 l-43 -21 0 -163 c0 -90 2 -163 5 -163 2 0 25 10 50 22 l45
22 0 163 c0 90 -3 163 -7 162 -5 0 -27 -10 -50 -22z"/>
<path d="M2550 3147 l0 -113 50 -49 50 -49 0 103 0 103 -46 59 c-25 32 -47 59
-50 59 -2 0 -4 -51 -4 -113z"/>
<path d="M2290 2754 l0 -502 23 -6 c12 -3 34 -6 50 -6 l27 0 0 456 0 455 -50
52 -50 52 0 -501z"/>
<path d="M228 3172 l-38 -17 0 -167 0 -168 28 12 c76 33 72 23 72 199 0 174 2
169 -62 141z"/>
<path d="M883 3162 l-42 -27 -1 -427 0 -428 45 0 45 0 2 455 c2 250 1 455 -2
454 -3 0 -24 -13 -47 -27z"/>
<path d="M98 3112 l-38 -17 0 -167 0 -167 50 21 50 21 0 163 c0 180 2 174 -62
146z"/>
<path d="M1710 2955 l0 -155 105 0 105 0 0 155 0 155 -105 0 -105 0 0 -155z"/>
<path d="M2420 2676 l0 -436 50 0 50 0 0 383 -1 382 -49 53 -50 53 0 -435z"/>
<path d="M747 3075 l-37 -26 0 -385 0 -385 48 3 47 3 3 408 c2 325 0 407 -11
407 -7 0 -29 -11 -50 -25z"/>
<path d="M2680 3000 l0 -105 50 -43 50 -43 0 93 -1 93 -49 55 -49 55 -1 -105z"/>
<path d="M620 3001 l-45 -27 -3 -342 -2 -342 55 0 55 0 0 370 c0 204 -3 370
-7 369 -5 0 -28 -13 -53 -28z"/>
<path d="M2550 2608 l0 -368 50 0 50 0 0 314 0 315 -50 53 -49 53 -1 -367z"/>
<path d="M12 2851 c-7 -62 -11 -115 -10 -117 2 -1 9 1 16 5 9 6 12 37 10 117
l-3 109 -13 -114z"/>
<path d="M498 2932 l-48 -27 0 -307 0 -308 50 0 50 0 0 335 c0 184 -1 335 -2
335 -2 0 -24 -13 -50 -28z"/>
<path d="M2810 2865 l0 -89 42 -43 c23 -24 46 -43 50 -43 4 0 8 36 8 79 l0 80
-50 53 -49 53 -1 -90z"/>
<path d="M368 2864 l-48 -24 0 -275 0 -275 50 0 50 0 0 300 c0 165 -1 300 -2
300 -2 -1 -24 -12 -50 -26z"/>
<path d="M2680 2531 l0 -301 50 0 50 0 0 258 -1 257 -49 43 -50 44 0 -301z"/>
<path d="M233 2797 l-43 -21 0 -238 0 -238 24 -6 c13 -3 35 -4 47 -2 l24 3 3
263 c1 144 -1 262 -5 261 -5 0 -27 -10 -50 -22z"/>
<path d="M2950 2724 l0 -80 45 -37 45 -38 0 73 0 74 -45 44 -45 44 0 -80z"/>
<path d="M4730 2755 c0 -18 5 -25 20 -25 11 0 20 4 20 9 0 5 3 16 6 25 5 12 0
16 -20 16 -21 0 -26 -5 -26 -25z"/>
<path d="M103 2737 l-43 -20 0 -209 0 -208 50 0 50 0 0 230 c0 127 -3 229 -7
229 -5 -1 -27 -11 -50 -22z"/>
<path d="M0 2538 c0 -90 3 -194 7 -233 7 -67 7 -68 14 -30 5 22 8 127 8 233 1
164 -1 192 -14 192 -13 0 -15 -25 -15 -162z"/>
<path d="M2812 2468 l3 -233 48 -3 47 -3 0 198 0 199 -44 37 c-25 20 -48 37
-51 37 -3 0 -5 -105 -3 -232z"/>
<path d="M3070 2615 l0 -70 48 -38 47 -39 3 58 c3 57 3 58 -47 108 l-51 51 0
-70z"/>
<path d="M4641 2634 c-17 -35 -21 -61 -19 -107 l3 -62 22 35 c18 28 23 49 23
108 0 39 -2 72 -4 72 -2 0 -13 -21 -25 -46z"/>
<path d="M4763 2610 c-10 -27 -9 -30 8 -30 14 0 19 7 19 30 0 17 -4 30 -8 30
-4 0 -13 -13 -19 -30z"/>
<path d="M1710 2438 l0 -178 38 0 c20 0 67 -3 105 -7 l67 -6 -2 182 -3 183
-103 1 -102 2 0 -177z"/>
<path d="M2950 2406 l0 -176 45 0 45 0 0 143 0 142 -33 26 c-60 48 -57 55 -57
-135z"/>
<path d="M3210 2493 c0 -57 1 -58 43 -85 l42 -27 3 40 c4 54 1 60 -47 98 l-41
33 0 -59z"/>
<path d="M4562 2480 c-14 -19 -22 -44 -22 -71 0 -41 1 -42 19 -25 13 12 20 34
23 72 1 30 3 54 2 54 0 0 -10 -13 -22 -30z"/>
<path d="M4734 2486 c-3 -8 -4 -29 -2 -48 2 -28 7 -34 31 -36 26 -3 27 -2 27
47 0 48 -2 51 -25 51 -14 0 -28 -6 -31 -14z"/>
<path d="M3070 2355 c0 -93 3 -125 13 -125 6 0 29 -3 50 -6 l37 -7 0 99 -1 99
-44 33 c-24 17 -47 32 -50 32 -3 0 -5 -56 -5 -125z"/>
<path d="M4861 2333 c-1 -130 1 -153 14 -153 12 0 15 19 14 113 0 64 -6 129
-14 152 -12 37 -13 28 -14 -112z"/>
<path d="M3330 2405 c0 -43 2 -47 48 -76 l47 -30 3 38 c3 33 -1 42 -30 66 -63
53 -68 54 -68 2z"/>
<path d="M4637 2405 c-15 -21 -17 -41 -15 -122 3 -86 5 -98 21 -98 15 0 17 13
20 123 1 67 0 122 -3 122 -3 0 -13 -12 -23 -25z"/>
<path d="M4483 2366 c-37 -46 -26 -78 11 -37 10 11 16 30 14 43 -3 23 -3 23
-25 -6z"/>
<path d="M3209 2376 c-2 -2 -3 -38 -1 -80 l4 -76 44 0 44 0 0 53 c0 43 -4 55
-22 66 -13 8 -32 20 -44 28 -11 7 -22 11 -25 9z"/>
<path d="M3470 2313 c0 -36 3 -41 46 -61 l45 -22 -3 35 c-2 30 -10 40 -45 61
l-43 25 0 -38z"/>
<path d="M4557 2322 c-12 -13 -17 -37 -17 -75 0 -50 3 -57 19 -57 17 0 20 9
23 75 2 41 0 75 -3 75 -3 0 -13 -8 -22 -18z"/>
<path d="M4734 2306 c-3 -7 -4 -38 -2 -67 3 -51 5 -54 31 -57 l27 -3 0 70 c0
69 -1 71 -25 71 -14 0 -28 -6 -31 -14z"/>
<path d="M4920 2253 c0 -66 2 -73 20 -73 17 0 20 7 20 43 0 25 -8 54 -20 72
l-20 30 0 -72z"/>
<path d="M3330 2260 l0 -40 50 0 c65 0 66 19 4 54 -26 14 -48 26 -50 26 -2 0
-4 -18 -4 -40z"/>
<path d="M4395 2280 c-10 -11 -16 -22 -14 -25 7 -6 49 24 49 36 0 15 -16 10
-35 -11z"/>
<path d="M3600 2240 l0 -30 63 0 62 1 -29 16 c-16 8 -45 22 -63 29 l-33 14 0
-30z"/>
<path d="M4478 2259 c-11 -6 -18 -22 -18 -39 0 -25 4 -30 25 -30 23 0 25 4 25
40 0 42 -4 46 -32 29z"/>
<path d="M3470 2220 c0 -5 5 -10 11 -10 5 0 7 5 4 10 -3 6 -8 10 -11 10 -2 0
-4 -4 -4 -10z"/>
<path d="M4394 2205 c-18 -14 -18 -14 9 -15 17 0 27 5 27 15 0 19 -11 19 -36
0z"/>
<path d="M4990 2195 c0 -9 9 -15 21 -15 18 0 19 2 9 15 -7 8 -16 15 -21 15 -5
0 -9 -7 -9 -15z"/>
<path d="M3085 2069 c-412 -3 -813 -7 -890 -8 l-140 -1 0 -322 0 -323 -67 -3
-68 -3 0 332 0 332 -61 -7 c-34 -3 -81 -6 -105 -6 l-44 0 -2 -322 -3 -323 -62
-3 -63 -3 0 326 0 325 -418 0 c-230 0 -575 -3 -765 -7 -315 -6 -347 -8 -347
-23 0 -9 15 -73 34 -142 168 -610 550 -1134 1081 -1481 321 -210 690 -344
1075 -392 162 -20 478 -20 640 0 460 57 887 235 1260 523 117 91 316 287 413
407 168 208 324 481 412 719 36 97 96 305 109 379 l7 37 -110 0 -110 0 -3 -92
-3 -93 -32 -3 -33 -3 0 95 0 96 -30 0 -30 0 0 -96 0 -95 -32 3 -33 3 -2 80
c-1 44 -2 86 -2 93 -1 13 -197 14 -1576 1z"/>
</g>
</svg>
